
<svg aria-hidden="true" style="position: absolute; width: 0; height: 0; overflow: hidden;" version="1.1" xmlns="http://www.w3.org/2000/svg" xmlns:xlink="http://www.w3.org/1999/xlink">
<defs>

<symbol id="icon-bxs-basket" viewBox="0 0 32 32">
<path d="M10.843 3.339l-4.949 8.661h-1.893c-0.736 0.001-1.333 0.598-1.333 1.335 0 0.124 0.017 0.245 0.049 0.359l-0.002-0.009 3.732 13.684c0.32 1.141 1.351 1.964 2.573 1.965h13.964c1.197 0 2.256-0.807 2.573-1.967l3.732-13.684c0.030-0.106 0.047-0.227 0.047-0.352 0-0.735-0.596-1.331-1.331-1.331-0.002 0-0.003 0-0.005 0h-1.893l-4.949-8.661-2.315 1.323 4.193 7.339h-14.072l4.193-7.339-2.315-1.323zM18.667 17.333h2.667v6.667h-2.667v-6.667zM10.667 17.333h2.667v6.667h-2.667v-6.667z"></path>
</symbol>

<symbol id="icon-fast-food" viewBox="0 0 32 32">
<path fill="#64646a" style="fill: var(--color1, #64646a)" d="M9.989 21.127c-0.803-0.461-1.346-1.326-1.346-2.317 0-4.090 3.327-7.417 7.417-7.417h3.056l0.144-2.373h-17.319l1.244 20.525c0.029 0.47 0.418 0.836 0.888 0.836h5.461c-0.56-0.744-0.892-1.669-0.892-2.67 0-1.154 0.736-2.139 1.763-2.511-0.364-0.558-0.577-1.224-0.577-1.939s0.213-1.382 0.578-1.941c-0.29-0.065-0.451-0.13-0.418-0.192z"></path>
<path fill="#64646a" style="fill: var(--color1, #64646a)" d="M10.6 7.239c0.001 0 0.001-0 0.002-0h8.899c0.492 0 0.89-0.398 0.89-0.89s-0.398-0.89-0.89-0.89h-7.257l2.399-3.679h3.078c0.492 0 0.89-0.398 0.89-0.89s-0.398-0.89-0.89-0.89h-3.56c-0.301 0-0.581 0.152-0.745 0.404l-3.297 5.055h-8.418c-0.492 0-0.89 0.398-0.89 0.89s0.398 0.89 0.89 0.89h8.896c0.001 0 0.002 0 0.003 0z"></path>
<path fill="#64646a" style="fill: var(--color1, #64646a)" d="M10.422 18.809c0 0.492 0.398 0.89 0.89 0.89h18.987c0.492 0 0.89-0.398 0.89-0.89 0-3.108-2.529-5.637-5.637-5.637h-9.494c-3.108 0-5.637 2.529-5.637 5.637z"></path>
<path fill="#64646a" style="fill: var(--color1, #64646a)" d="M13.389 21.48c-0.983 0-1.78 0.797-1.78 1.78s0.797 1.78 1.78 1.78h14.834c0.983 0 1.78-0.797 1.78-1.78s-0.797-1.78-1.78-1.78h-14.834z"></path>
<path fill="#64646a" style="fill: var(--color1, #64646a)" d="M30.3 26.82h-18.987c-0.492 0-0.89 0.398-0.89 0.89 0 1.472 1.198 2.67 2.67 2.67h15.427c1.472 0 2.67-1.198 2.67-2.67 0-0.492-0.398-0.89-0.89-0.89z"></path>
</symbol>


<symbol id="icon-food" viewBox="0 0 32 32">
<path fill="#64646a" style="fill: var(--color1, #64646a)" d="M26.8 16.791c-0.145-0.166-0.268-0.348-0.37-0.539-0.050 5.146-4.251 9.317-9.409 9.317-5.188 0-9.41-4.221-9.41-9.41s4.221-9.41 9.41-9.41c4.463 0 8.211 3.124 9.171 7.3l0.871-6.477c-2.426-2.834-6.028-4.633-10.042-4.633-3.132 0-6.012 1.096-8.28 2.923v3.047c0 1.792-0.929 3.428-2.399 4.363v10.669c2.407 3.293 6.297 5.437 10.679 5.437 4.605 0 8.666-2.367 11.034-5.948v-5.811c-0.48-0.156-0.916-0.44-1.255-0.829z"></path>
<path fill="#64646a" style="fill: var(--color1, #64646a)" d="M17.022 8.349c-4.307 0-7.811 3.504-7.811 7.811s3.504 7.811 7.811 7.811c4.307 0 7.811-3.504 7.811-7.811s-3.504-7.811-7.811-7.811z"></path>
<path fill="#64646a" style="fill: var(--color1, #64646a)" d="M31.964 1.543c0-0.681-0.552-1.232-1.232-1.232-0.617 0-1.139 0.456-1.221 1.068l-1.801 13.384c-0.047 0.352 0.060 0.708 0.294 0.975s0.572 0.421 0.928 0.421h0.723v14.356c0 0.648 0.525 1.173 1.173 1.173s1.172-0.525 1.172-1.173l-0.035-28.973z"></path>
<path fill="#64646a" style="fill: var(--color1, #64646a)" d="M7.143 1.803c0-0.442-0.358-0.8-0.8-0.8s-0.8 0.358-0.8 0.8v4.424h-1.173v-4.424c0-0.442-0.358-0.8-0.8-0.8s-0.8 0.358-0.8 0.8v4.424h-1.173v-4.424c0-0.442-0.358-0.8-0.8-0.8s-0.8 0.358-0.8 0.8v7.214c0 1.559 1.004 2.886 2.399 3.373v18.127c0 0.648 0.525 1.173 1.173 1.173s1.173-0.525 1.173-1.173v-18.127c1.395-0.486 2.399-1.814 2.399-3.373v-7.214z"></path>
</symbol>

<symbol id="icon-ice-cream" viewBox="0 0 32 32">
<path fill="#64646a" style="fill: var(--color1, #64646a)" d="M24.78 11.017c-0.356-0.228-0.543-0.638-0.474-1.044 0.876-5.197-3.137-9.9-8.3-9.973-5.376-0.076-9.491 4.768-8.527 10.078 0.072 0.399-0.090 0.808-0.413 1.042-0.894 0.647-1.387 1.692-1.321 2.794 0.174 2.878 3.778 4.057 5.631 1.885 0.026 0.016 0.053 0.033 0.079 0.048 0.272 0.165 0.434 0.446 0.434 0.753v1.379c0 0.523 0.208 1.012 0.585 1.375 1.201 1.159 3.238 0.328 3.238-1.409v-3.126c0-0.761 0.889-1.165 1.431-0.639 0.166 0.161 0.256 0.376 0.256 0.605v1.602c0 1.072 0.885 1.948 1.981 1.911 1.441-0.053 1.747-1.142 1.826-1.969 2.075 1.465 4.954 0.037 5.049-2.493 0.042-1.131-0.524-2.212-1.477-2.821zM14.579 4.457c-0.456 0.152-0.485 0.232-0.685 0.232-0.571 0-0.74-0.778-0.226-1.018 0.187-0.087 0.38-0.163 0.576-0.228 0.28-0.093 0.582 0.059 0.675 0.34s-0.059 0.582-0.34 0.674zM11.234 7.919c-0.347 0-0.602-0.324-0.519-0.661 0.19-0.773 0.559-1.508 1.067-2.125 0.187-0.228 0.524-0.26 0.751-0.073s0.26 0.524 0.073 0.751c-0.407 0.495-0.702 1.083-0.854 1.702-0.059 0.244-0.278 0.406-0.518 0.406zM22.27 17.914c0.314 0.059 0.495 0.39 0.378 0.687l-4.776 12.059c-0.706 1.787-3.269 1.788-3.976 0l-4.762-12.022c-0.122-0.308 0.078-0.646 0.406-0.692 0.216-0.030 0.43-0.077 0.641-0.14 0.31-0.093 0.627 0.117 0.657 0.439 0.050 0.521 0.237 1.246 0.895 1.88 1.636 1.577 4.23 0.78 4.89-1.194 0.114-0.34 0.531-0.452 0.809-0.227 1.303 1.056 3.372 0.852 4.311-0.58 0.104-0.159 0.3-0.253 0.526-0.21z"></path>
</symbol>

</defs>
</svg>
