
<svg aria-hidden="true" style="position: absolute; width: 0; height: 0; overflow: hidden;" version="1.1" xmlns="http://www.w3.org/2000/svg" xmlns:xlink="http://www.w3.org/1999/xlink">
<defs>

<symbol id="icon-bxs-basket" viewBox="0 0 32 32">
<path d="M10.843 3.339l-4.949 8.661h-1.893c-0.736 0.001-1.333 0.598-1.333 1.335 0 0.124 0.017 0.245 0.049 0.359l-0.002-0.009 3.732 13.684c0.32 1.141 1.351 1.964 2.573 1.965h13.964c1.197 0 2.256-0.807 2.573-1.967l3.732-13.684c0.030-0.106 0.047-0.227 0.047-0.352 0-0.735-0.596-1.331-1.331-1.331-0.002 0-0.003 0-0.005 0h-1.893l-4.949-8.661-2.315 1.323 4.193 7.339h-14.072l4.193-7.339-2.315-1.323zM18.667 17.333h2.667v6.667h-2.667v-6.667zM10.667 17.333h2.667v6.667h-2.667v-6.667z"></path>
</symbol>

</defs>
</svg>
